<svg version="1.1" xmlns="http://www.w3.org/2000/svg" xmlns:xlink="http://www.w3.org/1999/xlink" width="1669" height="2499"><defs/><g><g/><g/><g/><g/><g/><g/><g/><g/><g/><g/><g/><g/><g/><g/><g/><g/><g/><g/><g/><g/><g/><g/><g/><g/><g/><g/><g/><g/><g/><g/><g/><g/><g/><g/><g/><g/><g/><g/><g/><g/><g/><g/><g/><g><rect fill="white" stroke="none" x="0" y="0" width="1669" height="2499"/></g><g><text fill="black" stroke="none" font-family="sans-serif" font-size="16.5pt" font-style="normal" font-weight="normal" text-decoration="normal" x="713.6377573179648" y="24.50280495" text-anchor="start" dominant-baseline="alphabetic" xml:space="preserve">ParAnnyoing Sequences</text></g><g/><g><path fill="none" stroke="black" paint-order="fill stroke markers" d=" M 89.84361815 128.80307802049998 L 89.84361815 2499.6944849824995" stroke-miterlimit="10" stroke-width="1.3612669416666667" stroke-dasharray="12.565541,5.445067766666667"/><path fill="none" stroke="black" paint-order="fill stroke markers" d=" M 324.88594040013015 128.80307802049998 L 324.88594040013015 2099.4820041325" stroke-miterlimit="10" stroke-width="1.3612669416666667" stroke-dasharray="12.565541,5.445067766666667"/><path fill="none" stroke="black" paint-order="fill stroke markers" d=" M 555.3278604109374 2099.4820041325 L 555.3278604109374 2499.6944849824995" stroke-miterlimit="10" stroke-width="1.3612669416666667" stroke-dasharray="12.565541,5.445067766666667"/><path fill="none" stroke="black" paint-order="fill stroke markers" d=" M 685.6072123792617 128.80307802049998 L 685.6072123792617 1594.0708140305003" stroke-miterlimit="10" stroke-width="1.3612669416666667" stroke-dasharray="12.565541,5.445067766666667"/><path fill="none" stroke="black" paint-order="fill stroke markers" d=" M 816.0225735638945 1665.4556524515003 L 816.0225735638945 2499.6944849824995" stroke-miterlimit="10" stroke-width="1.3612669416666667" stroke-dasharray="12.565541,5.445067766666667"/><path fill="none" stroke="black" paint-order="fill stroke markers" d=" M 1020.9791252716419 128.80307802049998 L 1020.9791252716419 2499.6944849824995" stroke-miterlimit="10" stroke-width="1.3612669416666667" stroke-dasharray="12.565541,5.445067766666667"/><path fill="none" stroke="black" paint-order="fill stroke markers" d=" M 1198.2520227721927 128.80307802049998 L 1198.2520227721927 2499.6944849824995" stroke-miterlimit="10" stroke-width="1.3612669416666667" stroke-dasharray="12.565541,5.445067766666667"/><path fill="none" stroke="black" paint-order="fill stroke markers" d=" M 1412.1849233568933 128.80307802049998 L 1412.1849233568933 2499.6944849824995" stroke-miterlimit="10" stroke-width="1.3612669416666667" stroke-dasharray="12.565541,5.445067766666667"/><path fill="none" stroke="black" paint-order="fill stroke markers" d=" M 1579.6037714859297 128.80307802049998 L 1579.6037714859297 2499.6944849824995" stroke-miterlimit="10" stroke-width="1.3612669416666667" stroke-dasharray="12.565541,5.445067766666667"/></g><g><g><path fill="white" stroke="black" paint-order="fill stroke markers" d=" M 99.154684031 59.70516806150002 A 9.311065881 9.311065881 0 1 1 99.15467937546744 59.69585699717086 M 89.84361815 69.01623394250002 L 89.84361815 88.94518196850002 M 78.08227177399999 76.20372339450002 L 101.604964526 76.20372339450002 M 89.84361815 88.94518196850002 L 78.08227177399999 107.56731373050002 M 89.84361815 88.94518196850002 L 101.604964526 107.56731373050002" stroke-miterlimit="10" stroke-width="2.7769845610000004" stroke-dasharray=""/></g><g><g/><text fill="black" stroke="none" font-family="sans-serif" font-size="11pt" font-style="normal" font-weight="normal" text-decoration="normal" x="70.29101347470703" y="123.90251703050001" text-anchor="start" dominant-baseline="alphabetic" xml:space="preserve">User1</text></g><path fill="none" stroke="none"/><g><path fill="white" stroke="black" paint-order="fill stroke markers" d=" M 271.03841974638794 84.69802911050002 L 378.73346105387236 84.69802911050002 L 378.73346105387236 128.8030780205 L 271.03841974638794 128.8030780205 L 271.03841974638794 84.69802911050002 Z" stroke-miterlimit="10" stroke-width="2.613632528" stroke-dasharray=""/></g><g><g/><text fill="black" stroke="none" font-family="sans-serif" font-size="11pt" font-style="normal" font-weight="normal" text-decoration="normal" x="288.76211532688797" y="112.46787472049999" text-anchor="start" dominant-baseline="alphabetic" xml:space="preserve">DeviceOff1</text></g><path fill="none" stroke="none"/><g><path fill="white" stroke="black" paint-order="fill stroke markers" d=" M 631.6236825092109 84.69802911050002 L 739.5907422493125 84.69802911050002 L 739.5907422493125 128.8030780205 L 631.6236825092109 128.8030780205 L 631.6236825092109 84.69802911050002 Z" stroke-miterlimit="10" stroke-width="2.613632528" stroke-dasharray=""/></g><g><g/><text fill="black" stroke="none" font-family="sans-serif" font-size="11pt" font-style="normal" font-weight="normal" text-decoration="normal" x="649.3473780897109" y="112.46787472049999" text-anchor="start" dominant-baseline="alphabetic" xml:space="preserve">DeviceOn1</text></g><path fill="none" stroke="none"/><g><path fill="white" stroke="black" paint-order="fill stroke markers" d=" M 914.0249609411419 84.69802911050002 L 1127.933289602142 84.69802911050002 L 1127.933289602142 128.8030780205 L 914.0249609411419 128.8030780205 L 914.0249609411419 84.69802911050002 Z" stroke-miterlimit="10" stroke-width="2.613632528" stroke-dasharray=""/></g><g><g/><text fill="black" stroke="none" font-family="sans-serif" font-size="11pt" font-style="normal" font-weight="normal" text-decoration="normal" x="931.7486565216419" y="112.46787472049999" text-anchor="start" dominant-baseline="alphabetic" xml:space="preserve">Internet/Medium/GoogleApi</text></g><path fill="none" stroke="none"/><g><path fill="white" stroke="black" paint-order="fill stroke markers" d=" M 1144.268492902142 84.69802911050002 L 1252.2355526422436 84.69802911050002 L 1252.2355526422436 128.8030780205 L 1144.268492902142 128.8030780205 L 1144.268492902142 84.69802911050002 Z" stroke-miterlimit="10" stroke-width="2.613632528" stroke-dasharray=""/></g><g><g/><text fill="black" stroke="none" font-family="sans-serif" font-size="11pt" font-style="normal" font-weight="normal" text-decoration="normal" x="1161.992188482642" y="112.46787472049999" text-anchor="start" dominant-baseline="alphabetic" xml:space="preserve">DeviceOn2</text></g><path fill="none" stroke="none"/><g><path fill="white" stroke="black" paint-order="fill stroke markers" d=" M 1358.3374027031512 84.69802911050002 L 1466.0324440106356 84.69802911050002 L 1466.0324440106356 128.8030780205 L 1358.3374027031512 128.8030780205 L 1358.3374027031512 84.69802911050002 Z" stroke-miterlimit="10" stroke-width="2.613632528" stroke-dasharray=""/></g><g><g/><text fill="black" stroke="none" font-family="sans-serif" font-size="11pt" font-style="normal" font-weight="normal" text-decoration="normal" x="1376.061098283651" y="112.46787472049999" text-anchor="start" dominant-baseline="alphabetic" xml:space="preserve">DeviceOff2</text></g><g><path fill="white" stroke="black" paint-order="fill stroke markers" d=" M 1588.9148373669298 59.70516806150002 A 9.311065881 9.311065881 0 1 1 1588.9148327113971 59.69585699717086 M 1579.6037714859297 69.01623394250002 L 1579.6037714859297 88.94518196850002 M 1567.8424251099298 76.20372339450002 L 1591.3651178619295 76.20372339450002 M 1579.6037714859297 88.94518196850002 L 1567.8424251099298 107.56731373050002 M 1579.6037714859297 88.94518196850002 L 1591.3651178619295 107.56731373050002" stroke-miterlimit="10" stroke-width="2.7769845610000004" stroke-dasharray=""/></g><g><g/><text fill="black" stroke="none" font-family="sans-serif" font-size="11pt" font-style="normal" font-weight="normal" text-decoration="normal" x="1560.0511668106367" y="123.90251703050001" text-anchor="start" dominant-baseline="alphabetic" xml:space="preserve">User2</text></g></g><g><path fill="white" stroke="black" paint-order="fill stroke markers" d=" M 316.71833875013016 182.70924891049998 L 333.05354205013015 182.70924891049998 L 333.05354205013015 274.1863873905 L 316.71833875013016 274.1863873905 L 316.71833875013016 182.70924891049998" stroke-miterlimit="10" stroke-width="1.3612669416666667" stroke-dasharray=""/><path fill="white" stroke="black" paint-order="fill stroke markers" d=" M 677.4396107292616 228.44781815049998 L 693.7748140292617 228.44781815049998 L 693.7748140292617 274.1863873905 L 677.4396107292616 274.1863873905 L 677.4396107292616 228.44781815049998" stroke-miterlimit="10" stroke-width="1.3612669416666667" stroke-dasharray=""/><path fill="white" stroke="black" paint-order="fill stroke markers" d=" M 1404.0173217068932 319.9249566305 L 1420.3525250068933 319.9249566305 L 1420.3525250068933 411.4020951105 L 1404.0173217068932 411.4020951105 L 1404.0173217068932 319.9249566305" stroke-miterlimit="10" stroke-width="1.3612669416666667" stroke-dasharray=""/><path fill="white" stroke="black" paint-order="fill stroke markers" d=" M 1190.0844211221927 365.6635258705 L 1206.4196244221928 365.6635258705 L 1206.4196244221928 411.4020951105 L 1190.0844211221927 411.4020951105 L 1190.0844211221927 365.6635258705" stroke-miterlimit="10" stroke-width="1.3612669416666667" stroke-dasharray=""/><path fill="white" stroke="black" paint-order="fill stroke markers" d=" M 316.71833875013016 457.1406643505 L 333.05354205013015 457.1406643505 L 333.05354205013015 610.6915753705 L 316.71833875013016 610.6915753705 L 316.71833875013016 457.1406643505" stroke-miterlimit="10" stroke-width="1.3612669416666667" stroke-dasharray=""/><path fill="white" stroke="black" paint-order="fill stroke markers" d=" M 1404.0173217068932 502.8792335905 L 1420.3525250068933 502.8792335905 L 1420.3525250068933 548.6178028305 L 1404.0173217068932 548.6178028305 L 1404.0173217068932 502.8792335905" stroke-miterlimit="10" stroke-width="1.3612669416666667" stroke-dasharray=""/><path fill="white" stroke="black" paint-order="fill stroke markers" d=" M 1404.0173217068932 656.4301446105 L 1420.3525250068933 656.4301446105 L 1420.3525250068933 809.9810556304999 L 1404.0173217068932 809.9810556304999 L 1404.0173217068932 656.4301446105" stroke-miterlimit="10" stroke-width="1.3612669416666667" stroke-dasharray=""/><path fill="white" stroke="black" paint-order="fill stroke markers" d=" M 316.71833875013016 702.1687138504999 L 333.05354205013015 702.1687138504999 L 333.05354205013015 747.9072830904998 L 316.71833875013016 747.9072830904998 L 316.71833875013016 702.1687138504999" stroke-miterlimit="10" stroke-width="1.3612669416666667" stroke-dasharray=""/><path fill="white" stroke="black" paint-order="fill stroke markers" d=" M 316.71833875013016 943.9297226905 L 333.05354205013015 943.9297226905 L 333.05354205013015 1118.7163980005 L 316.71833875013016 1118.7163980005 L 316.71833875013016 943.9297226905" stroke-miterlimit="10" stroke-width="1.3612669416666667" stroke-dasharray=""/><path fill="white" stroke="black" paint-order="fill stroke markers" d=" M 677.4396107292616 1027.2392595205 L 693.7748140292617 1027.2392595205 L 693.7748140292617 1164.4549672405 L 677.4396107292616 1164.4549672405 L 677.4396107292616 1027.2392595205" stroke-miterlimit="10" stroke-width="1.3612669416666667" stroke-dasharray=""/><path fill="white" stroke="black" paint-order="fill stroke markers" d=" M 1012.8115236216419 1164.4549672405 L 1029.1467269216419 1164.4549672405 L 1029.1467269216419 1210.1935364805001 L 1012.8115236216419 1210.1935364805001 L 1012.8115236216419 1164.4549672405" stroke-miterlimit="10" stroke-width="1.3612669416666667" stroke-dasharray=""/><path fill="white" stroke="black" paint-order="fill stroke markers" d=" M 1190.0844211221927 1210.1935364805001 L 1206.4196244221928 1210.1935364805001 L 1206.4196244221928 1318.0058782605001 L 1190.0844211221927 1318.0058782605001 L 1190.0844211221927 1210.1935364805001" stroke-miterlimit="10" stroke-width="1.3612669416666667" stroke-dasharray=""/><path fill="white" stroke="black" paint-order="fill stroke markers" d=" M 1404.0173217068932 1318.0058782605001 L 1420.3525250068933 1318.0058782605001 L 1420.3525250068933 1500.9601552205004 L 1404.0173217068932 1500.9601552205004 L 1404.0173217068932 1318.0058782605001" stroke-miterlimit="10" stroke-width="1.3612669416666667" stroke-dasharray=""/><path fill="white" stroke="black" paint-order="fill stroke markers" d=" M 1190.0844211221927 1363.7444475005002 L 1206.4196244221928 1363.7444475005002 L 1206.4196244221928 1455.2215859805003 L 1190.0844211221927 1455.2215859805003 L 1190.0844211221927 1363.7444475005002" stroke-miterlimit="10" stroke-width="1.3612669416666667" stroke-dasharray=""/><path fill="white" stroke="black" paint-order="fill stroke markers" d=" M 807.8549719138945 1711.1942216915004 L 824.1901752138946 1711.1942216915004 L 824.1901752138946 1913.7507426115003 L 807.8549719138945 1913.7507426115003 L 807.8549719138945 1711.1942216915004" stroke-miterlimit="10" stroke-width="1.3612669416666667" stroke-dasharray=""/><path fill="white" stroke="black" paint-order="fill stroke markers" d=" M 316.71833875013016 1773.2679942315003 L 333.05354205013015 1773.2679942315003 L 333.05354205013015 1913.7507426115003 L 316.71833875013016 1913.7507426115003 L 316.71833875013016 1773.2679942315003" stroke-miterlimit="10" stroke-width="1.3612669416666667" stroke-dasharray=""/><path fill="white" stroke="black" paint-order="fill stroke markers" d=" M 316.71833875013016 1982.3585964715003 L 333.05354205013015 1982.3585964715003 L 333.05354205013015 2028.0971657115003 L 316.71833875013016 2028.0971657115003 L 316.71833875013016 1982.3585964715003" stroke-miterlimit="10" stroke-width="1.3612669416666667" stroke-dasharray=""/><path fill="white" stroke="black" paint-order="fill stroke markers" d=" M 547.1602587609374 2099.4820041325 L 563.4954620609375 2099.4820041325 L 563.4954620609375 2145.2205733725 L 547.1602587609374 2145.2205733725 L 547.1602587609374 2099.4820041325" stroke-miterlimit="10" stroke-width="1.3612669416666667" stroke-dasharray=""/><path fill="white" stroke="black" paint-order="fill stroke markers" d=" M 1012.8115236216419 2213.8284272325 L 1029.1467269216419 2213.8284272325 L 1029.1467269216419 2259.5669964725 L 1012.8115236216419 2259.5669964725 L 1012.8115236216419 2213.8284272325" stroke-miterlimit="10" stroke-width="1.3612669416666667" stroke-dasharray=""/><path fill="white" stroke="black" paint-order="fill stroke markers" d=" M 807.8549719138945 2259.5669964725 L 824.1901752138946 2259.5669964725 L 824.1901752138946 2372.2798992424996 L 807.8549719138945 2372.2798992424996 L 807.8549719138945 2259.5669964725" stroke-miterlimit="10" stroke-width="1.3612669416666667" stroke-dasharray=""/><path fill="white" stroke="black" paint-order="fill stroke markers" d=" M 547.1602587609374 2372.2798992424996 L 563.4954620609375 2372.2798992424996 L 563.4954620609375 2418.0184684824994 L 547.1602587609374 2418.0184684824994 L 547.1602587609374 2372.2798992424996" stroke-miterlimit="10" stroke-width="1.3612669416666667" stroke-dasharray=""/><g><g><rect fill="white" stroke="none" x="162.5236224545768" y="161.4734846205" width="81.51471199097656" height="21.23576429"/></g><text fill="black" stroke="none" font-family="sans-serif" font-size="11pt" font-style="normal" font-weight="normal" text-decoration="normal" x="164.9739029495768" y="176.17516759049997" text-anchor="start" dominant-baseline="alphabetic" xml:space="preserve">Onboarding</text></g><g><path fill="none" stroke="black" paint-order="fill stroke markers" d=" M 89.84361815 182.70924891049998 L 313.99580486679685 182.70924891049998" stroke-miterlimit="10" stroke-width="1.3612669416666667" stroke-dasharray=""/><g transform="translate(316.71833875013016,182.70924891049998) translate(-316.71833875013016,-182.70924891049998)"><path fill="black" stroke="none" paint-order="stroke fill markers" d=" M 303.1056693334635 175.90291420216664 L 316.71833875013016 182.70924891049998 L 303.1056693334635 189.51558361883332 Z"/></g></g><g><g><rect fill="white" stroke="none" x="342.8842584441425" y="207.2120538605" width="81.51471199097656" height="21.23576429"/></g><text fill="black" stroke="none" font-family="sans-serif" font-size="11pt" font-style="normal" font-weight="normal" text-decoration="normal" x="345.33453893914253" y="221.91373683049997" text-anchor="start" dominant-baseline="alphabetic" xml:space="preserve">Onboarding</text></g><g><path fill="none" stroke="black" paint-order="fill stroke markers" d=" M 89.84361815 228.44781815049998 L 674.7170768459283 228.44781815049998" stroke-miterlimit="10" stroke-width="1.3612669416666667" stroke-dasharray=""/><g transform="translate(677.4396107292616,228.44781815049998) translate(-677.4396107292616,-228.44781815049998)"><path fill="black" stroke="none" paint-order="stroke fill markers" d=" M 663.826941312595 221.64148344216665 L 677.4396107292616 228.44781815049998 L 663.826941312595 235.25415285883332 Z"/></g></g><g><g><rect fill="white" stroke="none" x="425.77771831901225" y="252.9506231005" width="158.9377161413672" height="21.23576429"/></g><text fill="black" stroke="none" font-family="sans-serif" font-size="11pt" font-style="normal" font-weight="normal" text-decoration="normal" x="428.22799881401227" y="267.6523060705" text-anchor="start" dominant-baseline="alphabetic" xml:space="preserve">Scan onlineId or default</text></g><g><path fill="none" stroke="black" paint-order="fill stroke markers" d=" M 333.05354205013015 274.1863873905 L 674.7170768459283 274.1863873905" stroke-miterlimit="10" stroke-width="1.3612669416666667" stroke-dasharray=""/><g transform="translate(677.4396107292616,274.1863873905) translate(-677.4396107292616,-274.1863873905)"><path fill="black" stroke="none" paint-order="stroke fill markers" d=" M 663.826941312595 267.38005268216665 L 677.4396107292616 274.1863873905 L 663.826941312595 280.9927220988333 Z"/></g></g><g><g><rect fill="white" stroke="none" x="1459.220792250923" y="298.6891923405" width="81.51471199097656" height="21.23576429"/></g><text fill="black" stroke="none" font-family="sans-serif" font-size="11pt" font-style="normal" font-weight="normal" text-decoration="normal" x="1461.671072745923" y="313.39087531049995" text-anchor="start" dominant-baseline="alphabetic" xml:space="preserve">Onboarding</text></g><g><path fill="none" stroke="black" paint-order="fill stroke markers" d=" M 1579.6037714859297 319.9249566305 L 1423.0750588902267 319.9249566305" stroke-miterlimit="10" stroke-width="1.3612669416666667" stroke-dasharray=""/><g transform="translate(1420.3525250068933,319.9249566305) translate(-1420.3525250068933,-319.9249566305)"><path fill="black" stroke="none" paint-order="stroke fill markers" d=" M 1433.96519442356 313.11862192216665 L 1420.3525250068933 319.9249566305 L 1433.96519442356 326.73129133883333 Z"/></g></g><g><g><rect fill="white" stroke="none" x="1352.254341958573" y="344.4277615805" width="81.51471199097656" height="21.23576429"/></g><text fill="black" stroke="none" font-family="sans-serif" font-size="11pt" font-style="normal" font-weight="normal" text-decoration="normal" x="1354.704622453573" y="359.12944455049995" text-anchor="start" dominant-baseline="alphabetic" xml:space="preserve">Onboarding</text></g><g><path fill="none" stroke="black" paint-order="fill stroke markers" d=" M 1579.6037714859297 365.6635258705 L 1209.1421583055262 365.6635258705" stroke-miterlimit="10" stroke-width="1.3612669416666667" stroke-dasharray=""/><g transform="translate(1206.4196244221928,365.6635258705) translate(-1206.4196244221928,-365.6635258705)"><path fill="black" stroke="none" paint-order="stroke fill markers" d=" M 1220.0322938388595 358.85719116216666 L 1206.4196244221928 365.6635258705 L 1220.0322938388595 372.46986057883333 Z"/></g></g><g><g><rect fill="white" stroke="none" x="1225.7496149938595" y="390.1663308205" width="158.9377161413672" height="21.23576429"/></g><text fill="black" stroke="none" font-family="sans-serif" font-size="11pt" font-style="normal" font-weight="normal" text-decoration="normal" x="1228.1998954888595" y="404.86801379049996" text-anchor="start" dominant-baseline="alphabetic" xml:space="preserve">Scan onlineId or default</text></g><g><path fill="none" stroke="black" paint-order="fill stroke markers" d=" M 1404.0173217068932 411.4020951105 L 1209.1421583055262 411.4020951105" stroke-miterlimit="10" stroke-width="1.3612669416666667" stroke-dasharray=""/><g transform="translate(1206.4196244221928,411.4020951105) translate(-1206.4196244221928,-411.4020951105)"><path fill="black" stroke="none" paint-order="stroke fill markers" d=" M 1220.0322938388595 404.59576040216666 L 1206.4196244221928 411.4020951105 L 1220.0322938388595 418.20842981883334 Z"/></g></g><g><g><rect fill="white" stroke="none" x="170.27594941990884" y="435.9049000605" width="66.0100580603125" height="21.23576429"/></g><text fill="black" stroke="none" font-family="sans-serif" font-size="11pt" font-style="normal" font-weight="normal" text-decoration="normal" x="172.72622991490883" y="450.60658303049996" text-anchor="start" dominant-baseline="alphabetic" xml:space="preserve">Add User</text></g><g><path fill="none" stroke="black" paint-order="fill stroke markers" d=" M 89.84361815 457.1406643505 L 313.99580486679685 457.1406643505" stroke-miterlimit="10" stroke-width="1.3612669416666667" stroke-dasharray=""/><g transform="translate(316.71833875013016,457.1406643505) translate(-316.71833875013016,-457.1406643505)"><path fill="black" stroke="none" paint-order="stroke fill markers" d=" M 303.1056693334635 450.33432964216667 L 316.71833875013016 457.1406643505 L 303.1056693334635 463.94699905883334 Z"/></g></g><g><g><rect fill="white" stroke="none" x="1455.5665335228957" y="481.6434693005" width="88.82322944703125" height="21.23576429"/></g><text fill="black" stroke="none" font-family="sans-serif" font-size="11pt" font-style="normal" font-weight="normal" text-decoration="normal" x="1458.0168140178957" y="496.34515227049997" text-anchor="start" dominant-baseline="alphabetic" xml:space="preserve">Show UserId</text></g><g><path fill="none" stroke="black" paint-order="fill stroke markers" d=" M 1579.6037714859297 502.8792335905 L 1423.0750588902267 502.8792335905" stroke-miterlimit="10" stroke-width="1.3612669416666667" stroke-dasharray=""/><g transform="translate(1420.3525250068933,502.8792335905) translate(-1420.3525250068933,-502.8792335905)"><path fill="black" stroke="none" paint-order="stroke fill markers" d=" M 1433.96519442356 496.07289888216667 L 1420.3525250068933 502.8792335905 L 1433.96519442356 509.68556829883335 Z"/></g></g><g><g><rect fill="white" stroke="none" x="825.7523114176913" y="527.3820385404999" width="85.56624092164063" height="21.23576429"/></g><text fill="black" stroke="none" font-family="sans-serif" font-size="11pt" font-style="normal" font-weight="normal" text-decoration="normal" x="828.2025919126913" y="542.0837215104999" text-anchor="start" dominant-baseline="alphabetic" xml:space="preserve">Scan UserId</text></g><g><path fill="none" stroke="black" paint-order="fill stroke markers" d=" M 333.05354205013015 548.6178028305 L 1401.2947878235598 548.6178028305" stroke-miterlimit="10" stroke-width="1.3612669416666667" stroke-dasharray=""/><g transform="translate(1404.0173217068932,548.6178028305) translate(-1404.0173217068932,-548.6178028305)"><path fill="black" stroke="none" paint-order="stroke fill markers" d=" M 1390.4046522902265 541.8114681221666 L 1404.0173217068932 548.6178028305 L 1390.4046522902265 555.4241375388333 Z"/></g></g><g><g><rect fill="white" stroke="none" x="142.98534578221353" y="573.1206077805" width="120.59126533570313" height="21.23576429"/></g><g><rect fill="white" stroke="none" x="142.98534578221353" y="589.4558110805" width="113.29709114136719" height="21.23576429"/></g><text fill="black" stroke="none" font-family="sans-serif" font-size="11pt" font-style="normal" font-weight="normal" text-decoration="normal" x="145.43562627721352" y="587.8222907505" text-anchor="start" dominant-baseline="alphabetic" xml:space="preserve">(Enter password) </text><text fill="black" stroke="none" font-family="sans-serif" font-size="11pt" font-style="normal" font-weight="normal" text-decoration="normal" x="145.43562627721352" y="604.1574940505" text-anchor="start" dominant-baseline="alphabetic" xml:space="preserve"> and User added</text></g><g><path fill="none" stroke="black" paint-order="fill stroke markers" d=" M 316.71833875013016 610.6915753705 L 92.56615203333334 610.6915753705" stroke-miterlimit="10" stroke-width="1.3612669416666667" stroke-dasharray=""/><g transform="translate(89.84361815,610.6915753705) translate(-89.84361815,-610.6915753705)"><path fill="black" stroke="none" paint-order="stroke fill markers" d=" M 103.45628756666666 603.8852406621667 L 89.84361815 610.6915753705 L 103.45628756666666 617.4979100788333 Z"/></g></g><g><g><rect fill="white" stroke="none" x="1466.973119216255" y="635.1943803204999" width="66.0100580603125" height="21.23576429"/></g><text fill="black" stroke="none" font-family="sans-serif" font-size="11pt" font-style="normal" font-weight="normal" text-decoration="normal" x="1469.4233997112551" y="649.8960632904999" text-anchor="start" dominant-baseline="alphabetic" xml:space="preserve">Add User</text></g><g><path fill="none" stroke="black" paint-order="fill stroke markers" d=" M 1579.6037714859297 656.4301446105 L 1423.0750588902267 656.4301446105" stroke-miterlimit="10" stroke-width="1.3612669416666667" stroke-dasharray=""/><g transform="translate(1420.3525250068933,656.4301446105) translate(-1420.3525250068933,-656.4301446105)"><path fill="black" stroke="none" paint-order="stroke fill markers" d=" M 1433.96519442356 649.6238099021666 L 1420.3525250068933 656.4301446105 L 1433.96519442356 663.2364793188333 Z"/></g></g><g><g><rect fill="white" stroke="none" x="158.86936372654947" y="680.9329495604999" width="88.82322944703125" height="21.23576429"/></g><text fill="black" stroke="none" font-family="sans-serif" font-size="11pt" font-style="normal" font-weight="normal" text-decoration="normal" x="161.31964422154945" y="695.6346325304999" text-anchor="start" dominant-baseline="alphabetic" xml:space="preserve">Show UserId</text></g><g><path fill="none" stroke="black" paint-order="fill stroke markers" d=" M 89.84361815 702.1687138504999 L 313.99580486679685 702.1687138504999" stroke-miterlimit="10" stroke-width="1.3612669416666667" stroke-dasharray=""/><g transform="translate(316.71833875013016,702.1687138504999) translate(-316.71833875013016,-702.1687138504999)"><path fill="black" stroke="none" paint-order="stroke fill markers" d=" M 303.1056693334635 695.3623791421666 L 316.71833875013016 702.1687138504999 L 303.1056693334635 708.9750485588332 Z"/></g></g><g><g><rect fill="white" stroke="none" x="825.7523114176913" y="726.6715188004998" width="85.56624092164063" height="21.23576429"/></g><text fill="black" stroke="none" font-family="sans-serif" font-size="11pt" font-style="normal" font-weight="normal" text-decoration="normal" x="828.2025919126913" y="741.3732017704998" text-anchor="start" dominant-baseline="alphabetic" xml:space="preserve">Scan UserId</text></g><g><path fill="none" stroke="black" paint-order="fill stroke markers" d=" M 1404.0173217068932 747.9072830904998 L 335.77607593346346 747.9072830904998" stroke-miterlimit="10" stroke-width="1.3612669416666667" stroke-dasharray=""/><g transform="translate(333.05354205013015,747.9072830904998) translate(-333.05354205013015,-747.9072830904998)"><path fill="black" stroke="none" paint-order="stroke fill markers" d=" M 346.6662114667968 741.1009483821665 L 333.05354205013015 747.9072830904998 L 346.6662114667968 754.7136177988332 Z"/></g></g><g><g><rect fill="white" stroke="none" x="1439.6825155785598" y="772.4100880404999" width="120.59126533570313" height="21.23576429"/></g><g><rect fill="white" stroke="none" x="1439.6825155785598" y="788.7452913404999" width="113.29709114136719" height="21.23576429"/></g><text fill="black" stroke="none" font-family="sans-serif" font-size="11pt" font-style="normal" font-weight="normal" text-decoration="normal" x="1442.1327960735598" y="787.1117710104999" text-anchor="start" dominant-baseline="alphabetic" xml:space="preserve">(Enter password) </text><text fill="black" stroke="none" font-family="sans-serif" font-size="11pt" font-style="normal" font-weight="normal" text-decoration="normal" x="1442.1327960735598" y="803.4469743104999" text-anchor="start" dominant-baseline="alphabetic" xml:space="preserve"> and User added</text></g><g><path fill="none" stroke="black" paint-order="fill stroke markers" d=" M 1420.3525250068933 809.9810556304999 L 1576.8812376025962 809.9810556304999" stroke-miterlimit="10" stroke-width="1.3612669416666667" stroke-dasharray=""/><g transform="translate(1579.6037714859297,809.9810556304999) translate(-1579.6037714859297,-809.9810556304999)"><path fill="black" stroke="none" paint-order="stroke fill markers" d=" M 1565.991102069263 803.1747209221666 L 1579.6037714859297 809.9810556304999 L 1565.991102069263 816.7873903388332 Z"/></g></g><g><g><rect fill="white" stroke="none" x="122.34469026463539" y="922.6939584004999" width="161.87257637085938" height="21.23576429"/></g><text fill="black" stroke="none" font-family="sans-serif" font-size="11pt" font-style="normal" font-weight="normal" text-decoration="normal" x="124.79497075963539" y="937.3956413704999" text-anchor="start" dominant-baseline="alphabetic" xml:space="preserve">Write Message to User2</text></g><g><path fill="none" stroke="black" paint-order="fill stroke markers" d=" M 89.84361815 943.9297226905 L 313.99580486679685 943.9297226905" stroke-miterlimit="10" stroke-width="1.3612669416666667" stroke-dasharray=""/><g transform="translate(316.71833875013016,943.9297226905) translate(-316.71833875013016,-943.9297226905)"><path fill="black" stroke="none" paint-order="stroke fill markers" d=" M 303.1056693334635 937.1233879821666 L 316.71833875013016 943.9297226905 L 303.1056693334635 950.7360573988333 Z"/></g></g><g><g><rect fill="white" stroke="none" x="352.3835326217968" y="968.4325276404999" width="189.05940498414063" height="21.23576429"/></g><g><rect fill="white" stroke="none" x="352.3835326217968" y="984.7677309404999" width="135.265551224375" height="21.23576429"/></g><text fill="black" stroke="none" font-family="sans-serif" font-size="11pt" font-style="normal" font-weight="normal" text-decoration="normal" x="354.8338131167968" y="983.1342106104998" text-anchor="start" dominant-baseline="alphabetic" xml:space="preserve">Encrypt Message and show </text><text fill="black" stroke="none" font-family="sans-serif" font-size="11pt" font-style="normal" font-weight="normal" text-decoration="normal" x="354.8338131167968" y="999.4694139104998" text-anchor="start" dominant-baseline="alphabetic" xml:space="preserve">Activtiy for scanning</text></g><g><path fill="none" stroke="black" paint-order="fill stroke markers" d=" M 333.05354205013015 1006.0034952304999 L 398.39435525013016 1006.0034952304999 L 398.39435525013016 1027.2392595205 L 335.77607593346346 1027.2392595205" stroke-miterlimit="10" stroke-width="1.3612669416666667" stroke-dasharray=""/><g transform="translate(333.05354205013015,1027.2392595205) translate(-333.05354205013015,-1027.2392595205)"><path fill="black" stroke="none" paint-order="stroke fill markers" d=" M 346.6662114667968 1020.4329248121666 L 333.05354205013015 1027.2392595205 L 346.6662114667968 1034.0455942288331 Z"/></g></g><g><g><rect fill="white" stroke="none" x="332.70531099541205" y="1051.7420644705" width="101.8726068884375" height="21.23576429"/></g><text fill="black" stroke="none" font-family="sans-serif" font-size="11pt" font-style="normal" font-weight="normal" text-decoration="normal" x="335.15559149041206" y="1066.4437474405001" text-anchor="start" dominant-baseline="alphabetic" xml:space="preserve">Scan Message</text></g><g><path fill="none" stroke="black" paint-order="fill stroke markers" d=" M 89.84361815 1072.9778287605 L 674.7170768459283 1072.9778287605" stroke-miterlimit="10" stroke-width="1.3612669416666667" stroke-dasharray=""/><g transform="translate(677.4396107292616,1072.9778287605) translate(-677.4396107292616,-1072.9778287605)"><path fill="black" stroke="none" paint-order="stroke fill markers" d=" M 663.826941312595 1066.1714940521667 L 677.4396107292616 1072.9778287605 L 663.826941312595 1079.7841634688332 Z"/></g></g><g><g><rect fill="white" stroke="none" x="454.3102729454771" y="1097.4806337105001" width="101.8726068884375" height="21.23576429"/></g><text fill="black" stroke="none" font-family="sans-serif" font-size="11pt" font-style="normal" font-weight="normal" text-decoration="normal" x="456.7605534404771" y="1112.1823166805002" text-anchor="start" dominant-baseline="alphabetic" xml:space="preserve">Scan Message</text></g><g><path fill="none" stroke="black" paint-order="fill stroke markers" d=" M 677.4396107292616 1118.7163980005 L 335.77607593346346 1118.7163980005" stroke-miterlimit="10" stroke-width="1.3612669416666667" stroke-dasharray=""/><g transform="translate(333.05354205013015,1118.7163980005) translate(-333.05354205013015,-1118.7163980005)"><path fill="black" stroke="none" paint-order="stroke fill markers" d=" M 346.6662114667968 1111.9100632921668 L 333.05354205013015 1118.7163980005 L 346.6662114667968 1125.5227327088332 Z"/></g></g><g><g><rect fill="white" stroke="none" x="801.9452671756667" y="1143.2192029505002" width="102.69580329957031" height="21.23576429"/></g><text fill="black" stroke="none" font-family="sans-serif" font-size="11pt" font-style="normal" font-weight="normal" text-decoration="normal" x="804.3955476706667" y="1157.9208859205003" text-anchor="start" dominant-baseline="alphabetic" xml:space="preserve">Send Message</text></g><g><path fill="none" stroke="black" paint-order="fill stroke markers" d=" M 693.7748140292617 1164.4549672405 L 1010.0889897383086 1164.4549672405" stroke-miterlimit="10" stroke-width="1.3612669416666667" stroke-dasharray=""/><g transform="translate(1012.8115236216419,1164.4549672405) translate(-1012.8115236216419,-1164.4549672405)"><path fill="black" stroke="none" paint-order="stroke fill markers" d=" M 999.1988542049752 1157.6486325321669 L 1012.8115236216419 1164.4549672405 L 999.1988542049752 1171.2613019488333 Z"/></g></g><g><g><rect fill="white" stroke="none" x="1058.2676723721322" y="1188.9577721905002" width="102.69580329957031" height="21.23576429"/></g><text fill="black" stroke="none" font-family="sans-serif" font-size="11pt" font-style="normal" font-weight="normal" text-decoration="normal" x="1060.7179528671322" y="1203.6594551605003" text-anchor="start" dominant-baseline="alphabetic" xml:space="preserve">Send Message</text></g><g><path fill="none" stroke="black" paint-order="fill stroke markers" d=" M 1029.1467269216419 1210.1935364805001 L 1187.3618872388593 1210.1935364805001" stroke-miterlimit="10" stroke-width="1.3612669416666667" stroke-dasharray=""/><g transform="translate(1190.0844211221927,1210.1935364805001) translate(-1190.0844211221927,-1210.1935364805001)"><path fill="black" stroke="none" paint-order="stroke fill markers" d=" M 1176.471751705526 1203.387201772167 L 1190.0844211221927 1210.1935364805001 L 1176.471751705526 1216.9998711888334 Z"/></g></g><g><g><rect fill="white" stroke="none" x="1300.1212242827917" y="1234.6963414305003" width="185.78094734253906" height="21.23576429"/></g><text fill="black" stroke="none" font-family="sans-serif" font-size="11pt" font-style="normal" font-weight="normal" text-decoration="normal" x="1302.5715047777917" y="1249.3980244005004" text-anchor="start" dominant-baseline="alphabetic" xml:space="preserve">Notify new Message arrived</text></g><g><path fill="none" stroke="black" paint-order="fill stroke markers" d=" M 1206.4196244221928 1255.9321057205002 L 1576.8812376025962 1255.9321057205002" stroke-miterlimit="10" stroke-width="1.3612669416666667" stroke-dasharray=""/><g transform="translate(1579.6037714859297,1255.9321057205002) translate(-1579.6037714859297,-1255.9321057205002)"><path fill="black" stroke="none" paint-order="stroke fill markers" d=" M 1565.991102069263 1249.125771012167 L 1579.6037714859297 1255.9321057205002 L 1565.991102069263 1262.7384404288334 Z"/></g></g><path fill="white" stroke="black" paint-order="fill stroke markers" d=" M 1579.6037714859297 1299.2203944655002 L 1571.4361698359296 1299.2203944655002 M 1445.0462486672188 1280.4349106705001 L 1556.7344868659297 1280.4349106705001 L 1571.4361698359298 1295.1365936405002 L 1571.4361698359298 1318.0058782605001 L 1445.0462486672188 1318.0058782605001 L 1445.0462486672188 1280.4349106705001 M 1556.7344868659297 1280.4349106705001 L 1556.7344868659297 1295.1365936405002 L 1571.4361698359298 1295.1365936405002" stroke-miterlimit="10" stroke-width="1.3612669416666667" stroke-dasharray=""/><g><text fill="black" stroke="none" font-family="sans-serif" font-size="11pt" font-style="normal" font-weight="normal" text-decoration="normal" x="1467.9155332872188" y="1303.3041952905003" text-anchor="start" dominant-baseline="alphabetic" xml:space="preserve">User is busy</text></g><g><g><rect fill="white" stroke="none" x="1449.0418448021926" y="1342.5086832105003" width="101.8726068884375" height="21.23576429"/></g><text fill="black" stroke="none" font-family="sans-serif" font-size="11pt" font-style="normal" font-weight="normal" text-decoration="normal" x="1451.4921252971926" y="1357.2103661805004" text-anchor="start" dominant-baseline="alphabetic" xml:space="preserve">Scan Message</text></g><g><path fill="none" stroke="black" paint-order="fill stroke markers" d=" M 1579.6037714859297 1363.7444475005002 L 1423.0750588902267 1363.7444475005002" stroke-miterlimit="10" stroke-width="1.3612669416666667" stroke-dasharray=""/><g transform="translate(1420.3525250068933,1363.7444475005002) translate(-1420.3525250068933,-1363.7444475005002)"><path fill="black" stroke="none" paint-order="stroke fill markers" d=" M 1433.96519442356 1356.938112792167 L 1420.3525250068933 1363.7444475005002 L 1433.96519442356 1370.5507822088334 Z"/></g></g><g><g><rect fill="white" stroke="none" x="1340.4469002471471" y="1388.2472524505004" width="105.12959541382813" height="21.23576429"/></g><text fill="black" stroke="none" font-family="sans-serif" font-size="11pt" font-style="normal" font-weight="normal" text-decoration="normal" x="1342.8971807421472" y="1402.9489354205004" text-anchor="start" dominant-baseline="alphabetic" xml:space="preserve">Show Message</text></g><g><path fill="none" stroke="black" paint-order="fill stroke markers" d=" M 1579.6037714859297 1409.4830167405003 L 1209.1421583055262 1409.4830167405003" stroke-miterlimit="10" stroke-width="1.3612669416666667" stroke-dasharray=""/><g transform="translate(1206.4196244221928,1409.4830167405003) translate(-1206.4196244221928,-1409.4830167405003)"><path fill="black" stroke="none" paint-order="stroke fill markers" d=" M 1220.0322938388595 1402.676682032167 L 1206.4196244221928 1409.4830167405003 L 1220.0322938388595 1416.2893514488335 Z"/></g></g><g><g><rect fill="white" stroke="none" x="1254.2821696203243" y="1433.9858216905004" width="101.8726068884375" height="21.23576429"/></g><text fill="black" stroke="none" font-family="sans-serif" font-size="11pt" font-style="normal" font-weight="normal" text-decoration="normal" x="1256.7324501153244" y="1448.6875046605005" text-anchor="start" dominant-baseline="alphabetic" xml:space="preserve">Scan Message</text></g><g><path fill="none" stroke="black" paint-order="fill stroke markers" d=" M 1404.0173217068932 1455.2215859805003 L 1209.1421583055262 1455.2215859805003" stroke-miterlimit="10" stroke-width="1.3612669416666667" stroke-dasharray=""/><g transform="translate(1206.4196244221928,1455.2215859805003) translate(-1206.4196244221928,-1455.2215859805003)"><path fill="black" stroke="none" paint-order="stroke fill markers" d=" M 1220.0322938388595 1448.415251272167 L 1206.4196244221928 1455.2215859805003 L 1220.0322938388595 1462.0279206888335 Z"/></g></g><g><g><rect fill="white" stroke="none" x="1448.22580476313" y="1479.7243909305005" width="103.5046869665625" height="21.23576429"/></g><text fill="black" stroke="none" font-family="sans-serif" font-size="11pt" font-style="normal" font-weight="normal" text-decoration="normal" x="1450.6760852581301" y="1494.4260739005006" text-anchor="start" dominant-baseline="alphabetic" xml:space="preserve">Read Message</text></g><g><path fill="none" stroke="black" paint-order="fill stroke markers" d=" M 1579.6037714859297 1500.9601552205004 L 1423.0750588902267 1500.9601552205004" stroke-miterlimit="10" stroke-width="1.3612669416666667" stroke-dasharray=""/><g transform="translate(1420.3525250068933,1500.9601552205004) translate(-1420.3525250068933,-1500.9601552205004)"><path fill="black" stroke="none" paint-order="stroke fill markers" d=" M 1433.96519442356 1494.1538205121672 L 1420.3525250068933 1500.9601552205004 L 1433.96519442356 1507.7664899288336 Z"/></g></g><g><path fill="none" stroke="black" paint-order="fill stroke markers" d=" M 670.9055294092617 1579.3691310605002 L 700.3088953492617 1608.7724970005004 M 700.3088953492617 1579.3691310605002 L 670.9055294092617 1608.7724970005004" stroke-miterlimit="10" stroke-width="2.613632528" stroke-dasharray=""/></g><path fill="none" stroke="none"/><g><path fill="white" stroke="black" paint-order="fill stroke markers" d=" M 755.9259455493125 1621.3506035415005 L 876.1192015784766 1621.3506035415005 L 876.1192015784766 1665.4556524515006 L 755.9259455493125 1665.4556524515006 L 755.9259455493125 1621.3506035415005 Z" stroke-miterlimit="10" stroke-width="2.613632528" stroke-dasharray=""/></g><g><g/><text fill="black" stroke="none" font-family="sans-serif" font-size="11pt" font-style="normal" font-weight="normal" text-decoration="normal" x="773.6496411298125" y="1649.1204491515002" text-anchor="start" dominant-baseline="alphabetic" xml:space="preserve">DeviceOn1.1</text></g><g><g><rect fill="white" stroke="none" x="408.09193903645894" y="1689.9584574015005" width="81.51471199097656" height="21.23576429"/></g><text fill="black" stroke="none" font-family="sans-serif" font-size="11pt" font-style="normal" font-weight="normal" text-decoration="normal" x="410.54221953145895" y="1704.6601403715006" text-anchor="start" dominant-baseline="alphabetic" xml:space="preserve">Onboarding</text></g><g><path fill="none" stroke="black" paint-order="fill stroke markers" d=" M 89.84361815 1711.1942216915004 L 805.1324380305612 1711.1942216915004" stroke-miterlimit="10" stroke-width="1.3612669416666667" stroke-dasharray=""/><g transform="translate(807.8549719138945,1711.1942216915004) translate(-807.8549719138945,-1711.1942216915004)"><path fill="black" stroke="none" paint-order="stroke fill markers" d=" M 794.2423024972278 1704.3878869831672 L 807.8549719138945 1711.1942216915004 L 794.2423024972278 1718.0005563998336 Z"/></g></g><g><g><rect fill="white" stroke="none" x="109.17360872166664" y="1735.6970266415003" width="147.51326240601563" height="21.23576429"/></g><g><rect fill="white" stroke="none" x="109.17360872166664" y="1752.0322299415004" width="188.21473945679688" height="21.23576429"/></g><text fill="black" stroke="none" font-family="sans-serif" font-size="11pt" font-style="normal" font-weight="normal" text-decoration="normal" x="111.62388921666664" y="1750.3987096115004" text-anchor="start" dominant-baseline="alphabetic" xml:space="preserve">Setup new OnlineId</text><text fill="black" stroke="none" font-family="sans-serif" font-size="11pt" font-style="normal" font-weight="normal" text-decoration="normal" x="111.62388921666664" y="1766.7339129115005" text-anchor="start" dominant-baseline="alphabetic" xml:space="preserve"> =&gt; new UserId (same keys)</text></g><g><path fill="none" stroke="black" paint-order="fill stroke markers" d=" M 89.84361815 1773.2679942315003 L 313.99580486679685 1773.2679942315003" stroke-miterlimit="10" stroke-width="1.3612669416666667" stroke-dasharray=""/><g transform="translate(316.71833875013016,1773.2679942315003) translate(-316.71833875013016,-1773.2679942315003)"><path fill="black" stroke="none" paint-order="stroke fill markers" d=" M 303.1056693334635 1766.461659523167 L 316.71833875013016 1773.2679942315003 L 303.1056693334635 1780.0743289398335 Z"/></g></g><g><g><rect fill="white" stroke="none" x="514.6289078224615" y="1797.7707991815005" width="111.65069831910156" height="21.23576429"/></g><text fill="black" stroke="none" font-family="sans-serif" font-size="11pt" font-style="normal" font-weight="normal" text-decoration="normal" x="517.0791883174616" y="1812.4724821515006" text-anchor="start" dominant-baseline="alphabetic" xml:space="preserve">Scan OnlineId</text></g><g><path fill="none" stroke="black" paint-order="fill stroke markers" d=" M 333.05354205013015 1819.0065634715004 L 805.1324380305612 1819.0065634715004" stroke-miterlimit="10" stroke-width="1.3612669416666667" stroke-dasharray=""/><g transform="translate(807.8549719138945,1819.0065634715004) translate(-807.8549719138945,-1819.0065634715004)"><path fill="black" stroke="none" paint-order="stroke fill markers" d=" M 794.2423024972278 1812.2002287631672 L 807.8549719138945 1819.0065634715004 L 794.2423024972278 1825.8128981798336 Z"/></g></g><g><g><rect fill="white" stroke="none" x="847.6039666105612" y="1843.5093684215003" width="51.05662788453125" height="21.23576429"/></g><g><rect fill="white" stroke="none" x="847.6039666105612" y="1859.8445717215004" width="147.48460640015625" height="21.23576429"/></g><g><rect fill="white" stroke="none" x="847.6039666105612" y="1876.1797750215005" width="149.96136726441406" height="21.23576429"/></g><g><rect fill="white" stroke="none" x="847.6039666105612" y="1892.5149783215006" width="91.27131904664063" height="21.23576429"/></g><text fill="black" stroke="none" font-family="sans-serif" font-size="11pt" font-style="normal" font-weight="normal" text-decoration="normal" x="850.0542471055612" y="1858.2110513915004" text-anchor="start" dominant-baseline="alphabetic" xml:space="preserve">TODO:</text><text fill="black" stroke="none" font-family="sans-serif" font-size="11pt" font-style="normal" font-weight="normal" text-decoration="normal" x="850.0542471055612" y="1874.5462546915005" text-anchor="start" dominant-baseline="alphabetic" xml:space="preserve">Notify all known users</text><text fill="black" stroke="none" font-family="sans-serif" font-size="11pt" font-style="normal" font-weight="normal" text-decoration="normal" x="850.0542471055612" y="1890.8814579915006" text-anchor="start" dominant-baseline="alphabetic" xml:space="preserve"> about new OnlineId</text><text fill="black" stroke="none" font-family="sans-serif" font-size="11pt" font-style="normal" font-weight="normal" text-decoration="normal" x="850.0542471055612" y="1907.2166612915007" text-anchor="start" dominant-baseline="alphabetic" xml:space="preserve"> via Message</text></g><g><path fill="none" stroke="black" paint-order="fill stroke markers" d=" M 824.1901752138946 1913.7507426115003 L 1018.2565913883086 1913.7507426115003" stroke-miterlimit="10" stroke-width="1.3612669416666667" stroke-dasharray=""/><g transform="translate(1020.9791252716419,1913.7507426115003) translate(-1020.9791252716419,-1913.7507426115003)"><path fill="black" stroke="none" paint-order="stroke fill markers" d=" M 1007.3664558549752 1906.944407903167 L 1020.9791252716419 1913.7507426115003 L 1007.3664558549752 1920.5570773198335 Z"/></g></g><g><g><rect fill="white" stroke="none" x="133.20009035008462" y="2006.8614014215004" width="140.16177619996094" height="21.23576429"/></g><text fill="black" stroke="none" font-family="sans-serif" font-size="11pt" font-style="normal" font-weight="normal" text-decoration="normal" x="135.6503708450846" y="2021.5630843915005" text-anchor="start" dominant-baseline="alphabetic" xml:space="preserve">Export all Data to file</text></g><g><path fill="none" stroke="black" paint-order="fill stroke markers" d=" M 316.71833875013016 2028.0971657115003 L 92.56615203333334 2028.0971657115003" stroke-miterlimit="10" stroke-width="1.3612669416666667" stroke-dasharray=""/><g transform="translate(89.84361815,2028.0971657115003) translate(-89.84361815,-2028.0971657115003)"><path fill="black" stroke="none" paint-order="stroke fill markers" d=" M 103.45628756666666 2021.290831003167 L 89.84361815 2028.0971657115003 L 103.45628756666666 2034.9035004198336 Z"/></g></g><path fill="none" stroke="none"/><g><path fill="white" stroke="black" paint-order="fill stroke markers" d=" M 495.367241612664 2055.3769552225003 L 615.2884792092109 2055.3769552225003 L 615.2884792092109 2099.4820041325 L 495.367241612664 2099.4820041325 L 495.367241612664 2055.3769552225003 Z" stroke-miterlimit="10" stroke-width="2.613632528" stroke-dasharray=""/></g><g><g/><text fill="black" stroke="none" font-family="sans-serif" font-size="11pt" font-style="normal" font-weight="normal" text-decoration="normal" x="513.090937193164" y="2083.1468008325" text-anchor="start" dominant-baseline="alphabetic" xml:space="preserve">DeviceOff1.1</text></g><g><path fill="none" stroke="black" paint-order="fill stroke markers" d=" M 310.1842574301302 2084.7803211625 L 339.58762337013013 2114.1836871025002 M 339.58762337013013 2084.7803211625 L 310.1842574301302 2114.1836871025002" stroke-miterlimit="10" stroke-width="2.613632528" stroke-dasharray=""/></g><g><g><rect fill="white" stroke="none" x="248.42105035548823" y="2123.9848090825" width="140.16177619996094" height="21.23576429"/></g><text fill="black" stroke="none" font-family="sans-serif" font-size="11pt" font-style="normal" font-weight="normal" text-decoration="normal" x="250.87133085048822" y="2138.6864920525" text-anchor="start" dominant-baseline="alphabetic" xml:space="preserve">Export all Data to file</text></g><g><path fill="none" stroke="black" paint-order="fill stroke markers" d=" M 89.84361815 2145.2205733725 L 544.4377248776041 2145.2205733725" stroke-miterlimit="10" stroke-width="1.3612669416666667" stroke-dasharray=""/><g transform="translate(547.1602587609374,2145.2205733725) translate(-547.1602587609374,-2145.2205733725)"><path fill="black" stroke="none" paint-order="stroke fill markers" d=" M 533.5475893442707 2138.4142386641665 L 547.1602587609374 2145.2205733725 L 533.5475893442707 2152.0269080808334 Z"/></g></g><g><g><rect fill="white" stroke="none" x="857.3712781512838" y="2238.3312321824997" width="122.25914253296875" height="21.23576429"/></g><text fill="black" stroke="none" font-family="sans-serif" font-size="11pt" font-style="normal" font-weight="normal" text-decoration="normal" x="859.8215586462838" y="2253.0329151524998" text-anchor="start" dominant-baseline="alphabetic" xml:space="preserve">Update available. </text></g><g><path fill="none" stroke="black" paint-order="fill stroke markers" d=" M 1012.8115236216419 2259.5669964725 L 826.9127090972279 2259.5669964725" stroke-miterlimit="10" stroke-width="1.3612669416666667" stroke-dasharray=""/><g transform="translate(824.1901752138946,2259.5669964725) translate(-824.1901752138946,-2259.5669964725)"><path fill="black" stroke="none" paint-order="stroke fill markers" d=" M 837.8028446305613 2252.7606617641663 L 824.1901752138946 2259.5669964725 L 837.8028446305613 2266.3733311808332 Z"/></g></g><g><g><rect fill="white" stroke="none" x="314.7813082381191" y="2284.0698014224995" width="268.1359735876562" height="21.23576429"/></g><text fill="black" stroke="none" font-family="sans-serif" font-size="11pt" font-style="normal" font-weight="normal" text-decoration="normal" x="317.2315887331191" y="2298.7714843924996" text-anchor="start" dominant-baseline="alphabetic" xml:space="preserve">Update available. Download and share it</text></g><g><path fill="none" stroke="black" paint-order="fill stroke markers" d=" M 807.8549719138945 2305.3055657124996 L 92.56615203333334 2305.3055657124996" stroke-miterlimit="10" stroke-width="1.3612669416666667" stroke-dasharray=""/><g transform="translate(89.84361815,2305.3055657124996) translate(-89.84361815,-2305.3055657124996)"><path fill="black" stroke="none" paint-order="stroke fill markers" d=" M 103.45628756666666 2298.499231004166 L 89.84361815 2305.3055657124996 L 103.45628756666666 2312.111900420833 Z"/></g></g><g><g><rect fill="white" stroke="none" x="843.5201657855613" y="2329.8083706625" width="52.173281326914065" height="21.23576429"/></g><text fill="black" stroke="none" font-family="sans-serif" font-size="11pt" font-style="normal" font-weight="normal" text-decoration="normal" x="845.9704462805613" y="2344.5100536325" text-anchor="start" dominant-baseline="alphabetic" xml:space="preserve">Update</text></g><g><path fill="none" stroke="black" paint-order="fill stroke markers" d=" M 824.1901752138946 2351.0441349524995 L 889.5309884138945 2351.0441349524995 L 889.5309884138945 2372.2798992424996 L 826.9127090972279 2372.2798992424996" stroke-miterlimit="10" stroke-width="1.3612669416666667" stroke-dasharray=""/><g transform="translate(824.1901752138946,2372.2798992424996) translate(-824.1901752138946,-2372.2798992424996)"><path fill="black" stroke="none" paint-order="stroke fill markers" d=" M 837.8028446305613 2365.473564534166 L 824.1901752138946 2372.2798992424996 L 837.8028446305613 2379.086233950833 Z"/></g></g><g><g><rect fill="white" stroke="none" x="292.41529779201164" y="2396.7827041924993" width="52.173281326914065" height="21.23576429"/></g><text fill="black" stroke="none" font-family="sans-serif" font-size="11pt" font-style="normal" font-weight="normal" text-decoration="normal" x="294.86557828701166" y="2411.4843871624994" text-anchor="start" dominant-baseline="alphabetic" xml:space="preserve">Update</text></g><g><path fill="none" stroke="black" paint-order="fill stroke markers" d=" M 89.84361815 2418.0184684824994 L 544.4377248776041 2418.0184684824994" stroke-miterlimit="10" stroke-width="1.3612669416666667" stroke-dasharray=""/><g transform="translate(547.1602587609374,2418.0184684824994) translate(-547.1602587609374,-2418.0184684824994)"><path fill="black" stroke="none" paint-order="stroke fill markers" d=" M 533.5475893442707 2411.212133774166 L 547.1602587609374 2418.0184684824994 L 533.5475893442707 2424.824803190833 Z"/></g></g><g><g/><path fill="none" stroke="black" paint-order="fill stroke markers" d=" M 16.335203300000003 834.4838605804999 L 1653.1121863359297 834.4838605804999 L 1653.1121863359297 1549.9657651205002 L 16.335203300000003 1549.9657651205002 L 16.335203300000003 834.4838605804999 Z" stroke-miterlimit="10" stroke-width="2.3336004714285714" stroke-dasharray=""/><path fill="white" stroke="black" paint-order="fill stroke markers" d=" M 16.335203300000003 834.4838605804999 L 16.335203300000003 854.0861045405 L 73.76000443125 854.0861045405 L 83.56112641125 844.2849825604999 L 83.56112641125 834.4838605804999 L 16.335203300000003 834.4838605804999" stroke-miterlimit="10" stroke-width="2.3336004714285714" stroke-dasharray=""/><text fill="black" stroke="none" font-family="sans-serif" font-size="8.8pt" font-style="normal" font-weight="bold" text-decoration="normal" x="32.67040660000001" y="847.5520232204999" text-anchor="start" dominant-baseline="alphabetic" xml:space="preserve">loop</text><text fill="black" stroke="none" font-family="sans-serif" font-size="8.8pt" font-style="normal" font-weight="bold" text-decoration="normal" x="99.89632971125" y="847.5520232204999" text-anchor="start" dominant-baseline="alphabetic" xml:space="preserve">[Exchanging Messages]</text></g><g><g/><path fill="none" stroke="black" paint-order="fill stroke markers" d=" M 32.6704066 878.5889094905 L 1636.7769830359296 878.5889094905 L 1636.7769830359296 1525.4629601705003 L 32.6704066 1525.4629601705003 L 32.6704066 878.5889094905 Z" stroke-miterlimit="10" stroke-width="2.3336004714285714" stroke-dasharray=""/><path fill="white" stroke="black" paint-order="fill stroke markers" d=" M 32.6704066 878.5889094905 L 32.6704066 898.1911534505 L 79.02961019707031 898.1911534505 L 88.83073217707032 888.3900314704999 L 88.83073217707032 878.5889094905 L 32.6704066 878.5889094905" stroke-miterlimit="10" stroke-width="2.3336004714285714" stroke-dasharray=""/><text fill="black" stroke="none" font-family="sans-serif" font-size="8.8pt" font-style="normal" font-weight="bold" text-decoration="normal" x="49.005609899999996" y="891.6570721305" text-anchor="start" dominant-baseline="alphabetic" xml:space="preserve">alt</text><text fill="black" stroke="none" font-family="sans-serif" font-size="8.8pt" font-style="normal" font-weight="bold" text-decoration="normal" x="105.16593547707032" y="891.6570721305" text-anchor="start" dominant-baseline="alphabetic" xml:space="preserve">[Sending and Receiving messages from both sides]</text></g><g><g/><path fill="none" stroke="black" paint-order="fill stroke markers" d=" M 32.6704066 1574.4685700705004 L 1078.152336821642 1574.4685700705004 L 1078.152336821642 1938.2535475615002 L 32.6704066 1938.2535475615002 L 32.6704066 1574.4685700705004 Z" stroke-miterlimit="10" stroke-width="2.3336004714285714" stroke-dasharray=""/><path fill="white" stroke="black" paint-order="fill stroke markers" d=" M 32.6704066 1574.4685700705004 L 32.6704066 1594.0708140305003 L 83.57727865410156 1594.0708140305003 L 93.37840063410157 1584.2696920505005 L 93.37840063410157 1574.4685700705004 L 32.6704066 1574.4685700705004" stroke-miterlimit="10" stroke-width="2.3336004714285714" stroke-dasharray=""/><text fill="black" stroke="none" font-family="sans-serif" font-size="8.8pt" font-style="normal" font-weight="bold" text-decoration="normal" x="49.005609899999996" y="1587.5367327105002" text-anchor="start" dominant-baseline="alphabetic" xml:space="preserve">opt</text><text fill="black" stroke="none" font-family="sans-serif" font-size="8.8pt" font-style="normal" font-weight="bold" text-decoration="normal" x="109.71360393410157" y="1587.5367327105002" text-anchor="start" dominant-baseline="alphabetic" xml:space="preserve">[Replace Online Device]</text></g><g><g/><path fill="none" stroke="black" paint-order="fill stroke markers" d=" M 32.6704066 1962.7563525115004 L 623.4560808592108 1962.7563525115004 L 623.4560808592108 2169.7233783225 L 32.6704066 2169.7233783225 L 32.6704066 1962.7563525115004 Z" stroke-miterlimit="10" stroke-width="2.3336004714285714" stroke-dasharray=""/><path fill="white" stroke="black" paint-order="fill stroke markers" d=" M 32.6704066 1962.7563525115004 L 32.6704066 1982.3585964715003 L 83.57727865410156 1982.3585964715003 L 93.37840063410157 1972.5574744915004 L 93.37840063410157 1962.7563525115004 L 32.6704066 1962.7563525115004" stroke-miterlimit="10" stroke-width="2.3336004714285714" stroke-dasharray=""/><text fill="black" stroke="none" font-family="sans-serif" font-size="8.8pt" font-style="normal" font-weight="bold" text-decoration="normal" x="49.005609899999996" y="1975.8245151515002" text-anchor="start" dominant-baseline="alphabetic" xml:space="preserve">opt</text><text fill="black" stroke="none" font-family="sans-serif" font-size="8.8pt" font-style="normal" font-weight="bold" text-decoration="normal" x="109.71360393410157" y="1975.8245151515002" text-anchor="start" dominant-baseline="alphabetic" xml:space="preserve">[Replace Offline Device]</text></g><g><g/><path fill="none" stroke="black" paint-order="fill stroke markers" d=" M 32.6704066 2194.2261832725 L 1078.152336821642 2194.2261832725 L 1078.152336821642 2442.5212734324996 L 32.6704066 2442.5212734324996 L 32.6704066 2194.2261832725 Z" stroke-miterlimit="10" stroke-width="2.3336004714285714" stroke-dasharray=""/><path fill="white" stroke="black" paint-order="fill stroke markers" d=" M 32.6704066 2194.2261832725 L 32.6704066 2213.8284272325 L 83.57727865410156 2213.8284272325 L 93.37840063410157 2204.0273052525 L 93.37840063410157 2194.2261832725 L 32.6704066 2194.2261832725" stroke-miterlimit="10" stroke-width="2.3336004714285714" stroke-dasharray=""/><text fill="black" stroke="none" font-family="sans-serif" font-size="8.8pt" font-style="normal" font-weight="bold" text-decoration="normal" x="49.005609899999996" y="2207.2943459125" text-anchor="start" dominant-baseline="alphabetic" xml:space="preserve">opt</text><text fill="black" stroke="none" font-family="sans-serif" font-size="8.8pt" font-style="normal" font-weight="bold" text-decoration="normal" x="109.71360393410157" y="2207.2943459125" text-anchor="start" dominant-baseline="alphabetic" xml:space="preserve">[Update Devices]</text></g></g><g/><g/><g/><g/><g/><g/><g/></g></svg>